<?xml version="1.0" encoding="utf-8"?>
<!-- Generator: Adobe Illustrator 26.3.1, SVG Export Plug-In . SVG Version: 6.00 Build 0)  -->
<svg version="1.1" id="_イヤー_2" xmlns="http://www.w3.org/2000/svg" xmlns:xlink="http://www.w3.org/1999/xlink" x="0px"
	 y="0px" viewBox="0 0 260.5 61.5" style="enable-background:new 0 0 260.5 61.5;" xml:space="preserve">
<style type="text/css">
	.st0{fill:#231F20;}
</style>
<g>
	<path class="st0" d="M135.6,60c0,0.8-0.7,1.5-1.5,1.5H94.5c-3.6,0-6.5-2.9-6.5-6.5V15.3c0-3.6,2.9-6.5,6.5-6.5h34.6
		c3.6,0,6.5,2.9,6.5,6.5v19.8c0,3.6,0,6.8-6.5,6.5h-10.6c-2.7,0-5,2.2-5,5v6.8c0,2.7,0.6,5.5,5,5l7.9-0.9
		C136.5,56.2,135.7,57.5,135.6,60z M125.8,17.2h-5.2c-5.2,0-6.6,4.2-6.6,6.9l0.1,9.5c-0.1,3.9,4.2,4.9,6.9,4.9h3.7
		c2.7,0,6.9-0.7,6.9-4.5l0.3-8.9C132,22.5,132,17.2,125.8,17.2z"/>
	<path class="st0" d="M172,6.5V55c0,3.6-2.9,6.5-6.5,6.5H153c-3.6,0-6.5-2.9-6.5-6.5V6.5c0-3.6,2.9-6.5,6.5-6.5h12.5
		C169.1,0,172,2.9,172,6.5z"/>
</g>
</svg>
